<svg width="52" height="50" viewBox="0 0 52 50" fill="none" xmlns="http://www.w3.org/2000/svg">
<path fill-rule="evenodd" clip-rule="evenodd" d="M3.56037 21.5646C17.5161 14.5306 26.8067 9.85678 31.4719 7.58925C44.7498 1.1569 47.541 0.0462759 49.3353 0C49.734 0 50.6113 0.0925526 51.2094 0.647864C51.6879 1.11062 51.8075 1.71221 51.8872 2.17497C51.967 2.63773 52.0467 3.60952 51.967 4.34994C51.2492 13.1424 48.1391 34.4756 46.5442 44.2861C45.8663 48.4509 44.5505 49.8392 43.2745 49.978C40.4834 50.2557 38.3701 47.8493 35.6985 45.8132C31.4719 42.6201 29.1194 40.6303 25.0124 37.4835C20.2674 33.874 23.3377 31.8841 26.0491 28.6448C26.7668 27.8118 39.008 14.8546 39.2473 13.6977C39.2872 13.5589 39.2872 13.0035 39.008 12.7259C38.7289 12.4482 38.3302 12.5408 38.0112 12.6333C37.5726 12.7259 30.8738 17.9088 17.8351 28.1358C15.9212 29.6629 14.2066 30.4033 12.6516 30.357C10.937 30.3107 7.66736 29.2464 5.19519 28.3209C2.20467 27.2103 -0.18775 26.6087 0.011618 24.6651C0.131239 23.647 1.32745 22.6289 3.56037 21.5646Z" fill="#85914D"/>
</svg>
