<svg width="65" height="61" viewBox="0 0 65 61" fill="none" xmlns="http://www.w3.org/2000/svg">
<path fill-rule="evenodd" clip-rule="evenodd" d="M4.45046 26.3088C21.8952 17.7274 33.5084 12.0253 39.3399 9.25889C55.9373 1.41142 59.4263 0.0564567 61.6691 0C62.1676 0 63.2641 0.112914 64.0117 0.790394C64.6098 1.35496 64.7593 2.0889 64.859 2.65347C64.9587 3.21803 65.0584 4.40362 64.9587 5.30693C64.0616 16.0337 60.1739 42.0602 58.1802 54.029C57.3329 59.1101 55.6881 60.8038 54.0931 60.9732C50.6042 61.3119 47.9626 58.3762 44.6232 55.8921C39.3399 51.9966 36.3992 49.5689 31.2655 45.7299C25.3343 41.3263 29.1721 38.8986 32.5614 34.9467C33.4585 33.9305 48.76 18.1226 49.0591 16.7112C49.1089 16.5418 49.1089 15.8643 48.76 15.5256C48.4112 15.1868 47.9127 15.2998 47.514 15.4127C46.9657 15.5256 38.5923 21.8487 22.2939 34.3256C19.9015 36.1887 17.7583 37.092 15.8145 37.0356C13.6712 36.9791 9.5842 35.6806 6.49399 34.5515C2.75584 33.1965 -0.234688 32.4626 0.0145225 30.0914C0.164049 28.8493 1.65931 27.6073 4.45046 26.3088Z" fill="#72765F"/>
</svg>
